# Aspose.3D Wavefront OBJ Exporter
# Copyright 2004-2025 Aspose Pty Ltd.
# File created: 06/06/2026 18:40:52

g body_1

#
# object body_1
#

v -0.9862756 4.510633 -0.04686199
v -0.6025017 4.510633 0.4306359
v -0.9862756 3.8980262 -0.04686199
v -0.6025017 3.8980262 0.4306359
v -0.1250038 4.510633 0.04686199
v -0.50877774 4.510633 -0.4306359
v -0.1250038 3.8980262 0.04686199
v -0.50877774 3.8980262 -0.4306359
v -0.1250038 4.510633 0.04686199
v -0.6025017 4.510633 0.4306359
v -0.50877774 4.510633 -0.4306359
v -0.9862756 4.510633 -0.04686199
v -0.50877774 3.8980262 -0.4306359
v -0.9862756 3.8980262 -0.04686199
v -0.1250038 3.8980262 0.04686199
v -0.6025017 3.8980262 0.4306359
v -0.50877774 4.510633 -0.4306359
v -0.9862756 4.510633 -0.04686199
v -0.50877774 3.8980262 -0.4306359
v -0.9862756 3.8980262 -0.04686199
v -0.6025017 4.510633 0.4306359
v -0.1250038 4.510633 0.04686199
v -0.6025017 3.8980262 0.4306359
v -0.1250038 3.8980262 0.04686199
# 24 vertices

vn -0.77945304 -1.224647E-16 0.6264608
vn -0.77945304 -1.224647E-16 0.6264608
vn -0.77945304 -1.224647E-16 0.6264608
vn -0.77945304 -1.224647E-16 0.6264608
vn 0.77945304 1.224647E-16 -0.6264608
vn 0.77945304 1.224647E-16 -0.6264608
vn 0.77945304 1.224647E-16 -0.6264608
vn 0.77945304 1.224647E-16 -0.6264608
vn -1.7217479E-16 1 -1.873614E-17
vn -1.7217479E-16 1 -1.873614E-17
vn -1.7217479E-16 1 -1.873614E-17
vn -1.7217479E-16 1 -1.873614E-17
vn 1.7217479E-16 -1 1.873614E-17
vn 1.7217479E-16 -1 1.873614E-17
vn 1.7217479E-16 -1 1.873614E-17
vn 1.7217479E-16 -1 1.873614E-17
vn -0.6264608 -1.2246469E-16 -0.77945304
vn -0.6264608 -1.2246469E-16 -0.77945304
vn -0.6264608 -1.2246469E-16 -0.77945304
vn -0.6264608 -1.2246469E-16 -0.77945304
vn 0.6264608 1.2246469E-16 0.77945304
vn 0.6264608 1.2246469E-16 0.77945304
vn 0.6264608 1.2246469E-16 0.77945304
vn 0.6264608 1.2246469E-16 0.77945304
# 24 vertex normals

vt 0 -0.25 0
vt 0.25 -0.25 0
vt 0 -0.5 0
vt 0.25 -0.5 0
vt 0.5 -0.25 0
vt 0.75 -0.25 0
vt 0.5 -0.5 0
vt 0.75 -0.5 0
vt 0.5 -0.25 0
vt 0.25 -0.25 0
vt 0.5 -0 0
vt 0.25 -0 0
vt 0.75 -0 0
vt 0.5 -0 0
vt 0.75 -0.25 0
vt 0.5 -0.25 0
vt 0.75 -0.25 0
vt 1 -0.25 0
vt 0.75 -0.5 0
vt 1 -0.5 0
vt 0.25 -0.25 0
vt 0.5 -0.25 0
vt 0.25 -0.5 0
vt 0.5 -0.5 0
# 24 texture coords

s 1
f 1/1/1 3/3/3 2/2/2
f 3/3/3 4/4/4 2/2/2
f 5/5/5 7/7/7 6/6/6
f 7/7/7 8/8/8 6/6/6
f 9/9/9 11/11/11 10/10/10
f 11/11/11 12/12/12 10/10/10
f 13/13/13 15/15/15 14/14/14
f 15/15/15 16/16/16 14/14/14
f 17/17/17 19/19/19 18/18/18
f 19/19/19 20/20/20 18/18/18
f 21/21/21 23/23/23 22/22/22
f 23/23/23 24/24/24 22/22/22
#12 polygons

g cube

#
# object cube
#

v -0.6462325 4.6261177 0.39761657
v -0.64075446 4.630011 0.40443245
v -0.56501436 4.334928 0.49866953
v -0.55953634 4.3388214 0.5054854
v -0.14833473 4.630011 0.008665596
v -0.15381278 4.6261177 0.0018497206
v -0.067116596 4.3388214 0.10971855
v -0.07259464 4.334928 0.10290267
v -0.14833473 4.630011 0.008665596
v -0.64075446 4.630011 0.40443245
v -0.15381278 4.6261177 0.0018497206
v -0.6462325 4.6261177 0.39761657
v -0.07259464 4.334928 0.10290267
v -0.56501436 4.334928 0.49866953
v -0.067116596 4.3388214 0.10971855
v -0.55953634 4.3388214 0.5054854
v -0.15381278 4.6261177 0.0018497206
v -0.6462325 4.6261177 0.39761657
v -0.07259464 4.334928 0.10290267
v -0.56501436 4.334928 0.49866953
v -0.64075446 4.630011 0.40443245
v -0.14833473 4.630011 0.008665596
v -0.55953634 4.3388214 0.5054854
v -0.067116596 4.3388214 0.10971855
# 24 vertices

vn -0.7794529 -1.4901161E-08 0.6264608
vn -0.7794529 -1.4901161E-08 0.6264608
vn -0.7794529 -1.4901161E-08 0.6264608
vn -0.7794529 -1.4901161E-08 0.6264608
vn 0.7794529 1.4901161E-08 -0.6264608
vn 0.7794529 1.4901161E-08 -0.6264608
vn 0.7794529 1.4901161E-08 -0.6264608
vn 0.7794529 1.4901161E-08 -0.6264608
vn -0.25480455 0.9135455 -0.31703207
vn -0.25480455 0.9135455 -0.31703207
vn -0.25480455 0.9135455 -0.31703207
vn -0.25480455 0.9135455 -0.31703207
vn 0.25480455 -0.9135455 0.31703207
vn 0.25480455 -0.9135455 0.31703207
vn 0.25480455 -0.9135455 0.31703207
vn 0.25480455 -0.9135455 0.31703207
vn -0.57230043 -0.40673664 -0.7120657
vn -0.57230043 -0.40673664 -0.7120657
vn -0.57230043 -0.40673664 -0.7120657
vn -0.57230043 -0.40673664 -0.7120657
vn 0.57230043 0.40673664 0.7120657
vn 0.57230043 0.40673664 0.7120657
vn 0.57230043 0.40673664 0.7120657
vn 0.57230043 0.40673664 0.7120657
# 24 vertex normals

vt 0 -0 0
vt 1 -0 0
vt 0 -1 0
vt 1 -1 0
vt 0 -0 0
vt 1 -0 0
vt 0 -1 0
vt 1 -1 0
vt 0 -0 0
vt 1 -0 0
vt 0 -1 0
vt 1 -1 0
vt 0 -0 0
vt 1 -0 0
vt 0 -1 0
vt 1 -1 0
vt 0 -0 0
vt 1 -0 0
vt 0 -1 0
vt 1 -1 0
vt 0.09375 -0.5625 0
vt 0.3125 -0.5625 0
vt 0.09375 -0.6796875 0
vt 0.3125 -0.6796875 0
# 24 texture coords

s 2
f 45/45/45 47/47/47 46/46/46
f 47/47/47 48/48/48 46/46/46
f 25/25/25 25/25/25 25/25/25
f 25/25/25 25/25/25 25/25/25
f 25/25/25 25/25/25 25/25/25
f 25/25/25 25/25/25 25/25/25
f 25/25/25 25/25/25 25/25/25
f 25/25/25 25/25/25 25/25/25
#8 polygons

g cube_1

#
# object cube_1
#

v -0.7538182 4.530164 0.23778158
v -0.7612791 4.530164 0.24377806
v -0.6928436 4.311553 0.31364718
v -0.7003045 4.311553 0.31964365
v -0.629806 4.6236024 0.40735906
v -0.6223451 4.6236024 0.4013626
v -0.56883144 4.4049916 0.48322466
v -0.5613705 4.4049916 0.4772282
v -0.629806 4.6236024 0.40735906
v -0.7612791 4.530164 0.24377806
v -0.6223451 4.6236024 0.4013626
v -0.7538182 4.530164 0.23778158
v -0.5613705 4.4049916 0.4772282
v -0.6928436 4.311553 0.31364718
v -0.56883144 4.4049916 0.48322466
v -0.7003045 4.311553 0.31964365
v -0.6223451 4.6236024 0.4013626
v -0.7538182 4.530164 0.23778158
v -0.5613705 4.4049916 0.4772282
v -0.6928436 4.311553 0.31364718
v -0.7612791 4.530164 0.24377806
v -0.629806 4.6236024 0.40735906
v -0.7003045 4.311553 0.31964365
v -0.56883144 4.4049916 0.48322466
# 24 vertices

vn -0.57230043 -0.4067366 -0.7120657
vn -0.57230043 -0.4067366 -0.7120657
vn -0.57230043 -0.4067366 -0.7120657
vn -0.57230043 -0.4067366 -0.7120657
vn 0.57230043 0.4067366 0.7120657
vn 0.57230043 0.4067366 0.7120657
vn 0.57230043 0.4067366 0.7120657
vn 0.57230043 0.4067366 0.7120657
vn -0.25480455 0.9135455 -0.31703207
vn -0.25480455 0.9135455 -0.31703207
vn -0.25480455 0.9135455 -0.31703207
vn -0.25480455 0.9135455 -0.31703207
vn 0.25480455 -0.9135455 0.31703207
vn 0.25480455 -0.9135455 0.31703207
vn 0.25480455 -0.9135455 0.31703207
vn 0.25480455 -0.9135455 0.31703207
vn 0.7794529 0 -0.6264608
vn 0.7794529 0 -0.6264608
vn 0.7794529 0 -0.6264608
vn 0.7794529 0 -0.6264608
vn -0.7794529 0 0.6264608
vn -0.7794529 0 0.6264608
vn -0.7794529 0 0.6264608
vn -0.7794529 0 0.6264608
# 24 vertex normals

vt 0 -0 0
vt 1 -0 0
vt 0 -1 0
vt 1 -1 0
vt 0 -0 0
vt 1 -0 0
vt 0 -1 0
vt 1 -1 0
vt 0 -0 0
vt 1 -0 0
vt 0 -1 0
vt 1 -1 0
vt 0 -0 0
vt 1 -0 0
vt 0 -1 0
vt 1 -1 0
vt 0 -0 0
vt 1 -0 0
vt 0 -1 0
vt 1 -1 0
vt 0.015625 -0.5703125 0
vt 0.09375 -0.5703125 0
vt 0.015625 -0.640625 0
vt 0.09375 -0.640625 0
# 24 texture coords

s 4
f 69/69/69 71/71/71 70/70/70
f 71/71/71 72/72/72 70/70/70
f 49/49/49 49/49/49 49/49/49
f 49/49/49 49/49/49 49/49/49
f 49/49/49 49/49/49 49/49/49
f 49/49/49 49/49/49 49/49/49
f 49/49/49 49/49/49 49/49/49
f 49/49/49 49/49/49 49/49/49
#8 polygons

g cube_2

#
# object cube_2
#

v -0.27597076 4.5309424 -0.14402951
v -0.28343168 4.5309424 -0.13803305
v -0.21499619 4.3123317 -0.068163924
v -0.2224571 4.3123317 -0.06216746
v -0.15195857 4.624381 0.025547974
v -0.14449768 4.624381 0.019551506
v -0.090984 4.4057703 0.101413555
v -0.083523095 4.4057703 0.09541709
v -0.15195857 4.624381 0.025547974
v -0.28343168 4.5309424 -0.13803305
v -0.14449768 4.624381 0.019551506
v -0.27597076 4.5309424 -0.14402951
v -0.083523095 4.4057703 0.09541709
v -0.21499619 4.3123317 -0.068163924
v -0.090984 4.4057703 0.101413555
v -0.2224571 4.3123317 -0.06216746
v -0.14449768 4.624381 0.019551506
v -0.27597076 4.5309424 -0.14402951
v -0.083523095 4.4057703 0.09541709
v -0.21499619 4.3123317 -0.068163924
v -0.28343168 4.5309424 -0.13803305
v -0.15195857 4.624381 0.025547974
v -0.2224571 4.3123317 -0.06216746
v -0.090984 4.4057703 0.101413555
# 24 vertices

vn -0.57230043 -0.4067366 -0.7120657
vn -0.57230043 -0.4067366 -0.7120657
vn -0.57230043 -0.4067366 -0.7120657
vn -0.57230043 -0.4067366 -0.7120657
vn 0.57230043 0.4067366 0.7120657
vn 0.57230043 0.4067366 0.7120657
vn 0.57230043 0.4067366 0.7120657
vn 0.57230043 0.4067366 0.7120657
vn -0.25480455 0.9135455 -0.31703207
vn -0.25480455 0.9135455 -0.31703207
vn -0.25480455 0.9135455 -0.31703207
vn -0.25480455 0.9135455 -0.31703207
vn 0.25480455 -0.9135455 0.31703207
vn 0.25480455 -0.9135455 0.31703207
vn 0.25480455 -0.9135455 0.31703207
vn 0.25480455 -0.9135455 0.31703207
vn 0.7794529 0 -0.6264608
vn 0.7794529 0 -0.6264608
vn 0.7794529 0 -0.6264608
vn 0.7794529 0 -0.6264608
vn -0.7794529 0 0.6264608
vn -0.7794529 0 0.6264608
vn -0.7794529 0 0.6264608
vn -0.7794529 0 0.6264608
# 24 vertex normals

vt 0 -0 0
vt 1 -0 0
vt 0 -1 0
vt 1 -1 0
vt 0 -0 0
vt 1 -0 0
vt 0 -1 0
vt 1 -1 0
vt 0 -0 0
vt 1 -0 0
vt 0 -1 0
vt 1 -1 0
vt 0 -0 0
vt 1 -0 0
vt 0 -1 0
vt 1 -1 0
vt 0.3046875 -0.5703125 0
vt 0.3828125 -0.5703125 0
vt 0.3046875 -0.640625 0
vt 0.3828125 -0.640625 0
vt 0 -0 0
vt 1 -0 0
vt 0 -1 0
vt 1 -1 0
# 24 texture coords

s 8
f 89/89/89 91/91/91 90/90/90
f 91/91/91 92/92/92 90/90/90
f 73/73/73 73/73/73 73/73/73
f 73/73/73 73/73/73 73/73/73
f 73/73/73 73/73/73 73/73/73
f 73/73/73 73/73/73 73/73/73
f 73/73/73 73/73/73 73/73/73
f 73/73/73 73/73/73 73/73/73
#8 polygons

